<svg xmlns="http://www.w3.org/2000/svg" id="b" viewBox="0 0 1971.99 415.71"><defs><style>.d{fill:#fff;stroke-width:0px;}</style></defs><g id="c"><path class="d" d="m1410.41,382.68l16.68-151.42,63.42,135.4,63.42-135.4,16.68,151.42h-9.66l-12.95-117.63s-57.28,122.89-57.5,122.89l-57.5-122.89-12.95,117.63h-9.66Z"></path><path class="d" d="m1688.68,338.14c0,26.55-20.41,46.96-46.96,46.96s-46.96-20.41-46.96-46.96,20.41-46.96,46.96-46.96,46.96,20.41,46.96,46.96Zm-9.22,0c0-21.73-16.24-38.62-37.74-38.62s-37.75,16.9-37.75,38.62,16.24,38.62,37.75,38.62,37.74-16.9,37.74-38.62Z"></path><path class="d" d="m1719.18,222.7v86.02c8.56-11.63,20.85-17.56,35.11-17.56,26.99,0,43.45,20.19,43.45,46.08s-16.68,47.84-43.89,47.84c-22.17,0-32.04-14.04-34.67-18.43v16.02h-8.78v-159.98h8.78Zm69.35,114.55c0-24.58-16.24-37.75-34.67-37.75s-35.11,12.51-35.11,37.31c0,22.38,12.29,39.94,34.89,39.94s34.89-17.56,34.89-39.5Z"></path><path class="d" d="m1815.96,263.3c0-4.83,3.51-8.12,7.9-8.12s7.9,3.29,7.9,8.12-3.51,8.12-7.9,8.12-7.9-3.29-7.9-8.12Zm12.29,29.85v89.54h-8.78v-89.54h8.78Z"></path><path class="d" d="m1864.46,222.7v159.98h-8.78v-159.98h8.78Z"></path><path class="d" d="m1895.4,339.01c0,22.82,16.68,37.74,35.55,37.74,14.48,0,25.46-8.56,31.16-20.41l7.46,4.39c-5.27,10.1-17.12,24.36-39.28,24.36-27.87,0-44.11-20.63-44.11-46.74,0-31.16,21.51-47.18,43.45-47.18,24.14,0,42.35,19.31,42.35,47.84h-76.59Zm67.37-8.34c-2.19-17.78-15.36-31.16-33.14-31.16s-31.16,13.83-33.58,31.16h66.71Z"></path><path class="d" d="m967.55,306.12c-8.84-12.45-21.53-18.11-36.03-18.11-26.97,0-45.1,19.69-45.1,48.21,0,30.33,20.85,48.66,45.1,48.66,12.01,0,26.74-4.75,36.03-19.01v16.52h9.07v-92.35h-9.07v16.07Zm-35.35,70.17c-23.34,0-36.26-19.92-36.26-40.74,0-25.13,17.68-38.93,36.03-38.93,15.86,0,36.03,11.54,36.03,38.93,0,21.28-12.69,40.74-35.81,40.74Z"></path><path class="d" d="m425.34,303.51c9.97-6.11,17.68-16.75,17.68-33.05,0-22.64-15.41-37.8-41.7-37.8h-33.09v150.98h41.47c27.42,0,46.91-15.84,46.91-42.33,0-19.47-11.56-34.63-31.27-37.8Zm-47.14-61.79h19.26c7.93,0,17.68.45,25.16,6.34,4.99,4.07,10.2,11.54,10.2,23.54,0,10.41-3.85,18.11-9.97,23.09-6.57,5.43-12.92,6.34-20.62,6.34h-24.02v-59.3Zm58.24,123.81c-10.2,9.05-22.66,9.05-32.86,9.05h-25.38v-64.51h23.57c16.77,0,24.25,2.49,28.33,4.3,11.33,5.21,16.09,14.49,16.09,28.07,0,7.02-1.59,15.84-9.74,23.09Z"></path><path class="d" d="m515.22,289.25c-22.66,0-44.87,16.52-44.87,48.66,0,26.94,16.77,48.21,45.55,48.21,22.89,0,35.13-14.71,40.57-25.12l-7.71-4.53c-5.89,12.22-17.22,21.05-32.18,21.05-19.49,0-36.71-15.39-36.71-38.93h79.09c0-29.43-18.81-49.34-43.74-49.34Zm0,8.6c18.36,0,31.95,13.81,34.22,32.14h-68.89c2.49-17.88,15.86-32.14,34.67-32.14Z"></path><path class="d" d="m601.45,326.94c-9.06-3.62-16.32-6.56-16.32-15.62,0-6.79,5.21-14.71,15.64-14.71,6.57,0,12.92,3.17,16.09,10.41l7.71-4.07c-4.31-9.96-13.37-14.94-24.25-14.94-14.05,0-24.7,9.73-24.7,23.77,0,5.43,2.04,9.28,4.08,12,4.08,5.43,10.88,8.37,20.17,12.22,14.05,5.66,20.62,9.51,20.62,19.92,0,12-8.84,20.37-20.62,20.37-10.2,0-19.94-6.34-23.12-18.56l-8.84,2.72c3.85,15.39,16.54,24.45,31.95,24.45,14.28,0,30.14-8.37,30.14-29.43,0-5.21-.91-10.19-4.76-14.94-5.89-7.47-14.5-9.96-23.8-13.58Z"></path><polygon class="d" points="660.37 258.24 651.3 258.24 651.3 291.29 641.1 291.29 641.1 299.89 651.3 299.89 651.3 383.64 660.37 383.64 660.37 299.89 676.46 299.89 676.46 291.29 660.37 291.29 660.37 258.24"></polygon><path class="d" d="m780.7,232.67h-29.23v150.98h9.97v-71.75h19.49c26.06,0,43.97-14.71,43.97-39.84s-19.49-39.38-44.19-39.38Zm.68,70.17h-19.94v-61.11h18.36c21.98,0,34.67,11.77,34.67,30.56s-13.37,30.56-33.09,30.56Z"></path><path class="d" d="m851.37,303.29v-12h-9.06v92.35h9.06v-49.57c0-11.54.23-36.22,18.81-36.22,4.08,0,5.89,1.13,6.8,1.81l4.53-8.15c-3.4-1.81-7.25-2.26-9.74-2.26-9.97,0-17,6.11-20.4,14.03Z"></path><path class="d" d="m1044.48,375.04c-17.9,0-38.07-13.13-38.07-39.61,0-22.63,15.86-40.06,38.53-40.06,15.18,0,25.84,8.15,31.95,15.17v-12c-12.69-10.64-25.38-11.77-31.95-11.77-29.69,0-48.04,21.5-48.04,48.89s19.49,47.99,47.36,47.99c16.32,0,27.65-7.47,33.77-12.9v-12.22c-7.25,7.92-18.81,16.52-33.54,16.52Z"></path><polygon class="d" points="1108.39 258.24 1099.32 258.24 1099.32 291.29 1089.12 291.29 1089.12 299.89 1099.32 299.89 1099.32 383.64 1108.39 383.64 1108.39 299.89 1124.48 299.89 1124.48 291.29 1108.39 291.29 1108.39 258.24"></polygon><path class="d" d="m1146.15,253.36c-4.53,0-8.16,3.4-8.16,8.38s3.63,8.38,8.16,8.38,8.16-3.4,8.16-8.38-3.63-8.38-8.16-8.38Z"></path><rect class="d" x="1141.62" y="291.29" width="9.06" height="92.35"></rect><path class="d" d="m1220.29,375.04c-17.9,0-38.07-13.13-38.07-39.61,0-22.63,15.86-40.06,38.53-40.06,15.18,0,25.84,8.15,31.95,15.17v-12c-12.69-10.64-25.38-11.77-31.95-11.77-29.69,0-48.04,21.5-48.04,48.89s19.49,47.99,47.36,47.99c16.32,0,27.65-7.47,33.77-12.9v-12.22c-7.25,7.92-18.81,16.52-33.54,16.52Z"></path><path class="d" d="m1314.02,375.04c-19.49,0-36.71-15.39-36.71-38.93h79.09c0-29.43-18.81-49.34-43.74-49.34-22.66,0-44.87,16.52-44.87,48.66,0,26.94,16.77,48.21,45.55,48.21,22.89,0,35.13-14.71,40.57-25.12l-7.71-4.53c-5.89,12.22-17.22,21.05-32.18,21.05Zm-3.5-78.43c18.36,0,31.95,13.81,34.22,32.14h-68.89c2.49-17.88,15.86-32.14,34.67-32.14Z"></path><path class="d" d="m305.49,316.48c-1.79-4.09-5.63-5.22-9.46-5-5.41.31-10.98.78-16.12,2.36-17.73,5.43-32.29,15.82-44.46,29.73-.93,1.07-2.59,1.89-4.01,2.07-4.54.59-9.16.63-13.7,1.23-12.49,1.67-25.08,2.9-37.39,5.47-13.84,2.88-26.48,8.64-35.41,20.42-6.08,8.02-9.26,16.65-5.25,26.63,2,4.98,5.7,8.07,11.08,9.05-1.37-.75-2.9-1.29-4.08-2.28-5.81-4.86-7.93-11.09-6.12-18.45,1.48-5.99,4.98-10.85,9.39-15.04,7.38-7.01,16.39-11,26.14-13.19,15.99-3.59,32.29-4.44,48.62-4.91.48-.01.97.17,1.8.33-2.4,3.88-4.69,7.48-6.89,11.14-7.17,11.96-13.96,24.11-17.56,37.72-.67,2.55-1.35,4.93-1.59,7.75-.29,1.93.57,3.87,2.45,4.14,3.84.61,5.84-2.99,6.29-3.84,4.31-8.28,8.46-16.64,12.9-24.85,5.41-9.98,11.09-19.82,16.57-29.76,1.56-2.84,3.92-3.52,6.96-3.8,12.25-1.1,24.3-3.09,35.49-8.68,8.62-4.3,16.56-9.37,22.23-17.39,2.33-3.3,3.89-6.81,2.11-10.85Zm-8.13,5.01c-.17.39-.36.76-.62,1.07-4.48,5.53-10.43,9.16-16.74,12.14-8.96,4.23-18.3,7.35-28.21,8.48-.49.06-1,0-2.37,0,2.93-2.87,5.16-5.35,7.69-7.48,6.9-5.8,14.18-11.17,22.64-14.38,1.17-.44,2.36-.82,3.56-1.15,3.19-.87,6.48-1.36,9.73-1.92,1.23-.21,2.75-.53,3.75.43.75.71.98,1.85.58,2.8Z"></path><path class="d" d="m205.49,367.47c.35-1.01.28-2.12-.21-3.07-.23-.44-.49-.81-.82-.91-.88-.28-2.3.04-3.02.65-1.03.87-1.76,2.18-2.4,3.41-2.46,4.77-4.99,9.52-7.2,14.4-2.65,5.85-5.06,11.8-7.44,17.76-.78,1.95-1.57,4.42,1.09,5.49,2.46.99,3.33-1.45,4.21-3.06,4.79-8.7,9.8-17.31,13.03-26.78.88-2.59,1.8-5.17,2.76-7.9Z"></path><path class="d" d="m230.22,317.27l.86-.38c-.26.11-.51.22-.77.33-.03.01-.06.04-.09.05Z"></path><path class="d" d="m153.66,275.21c9.15-3.3,16.57-9.19,23.46-15.88,3.36-3.26,3.38-3.17,5.42.94,1.13,2.28,2.67,4.23,5.49,4.39,3.12.17,5.82-.8,7.4-3.65.84-1.52,1.39-3.23,1.86-4.91,1.83-6.55-1.2-14.06-7.06-17.67-5.37-3.31-12.29-2.35-17.51,2.47-1.23,1.13-2.41,2.33-3.5,3.6-7.29,8.48-16.29,13.35-27.68,13.12-8.31-.17-15.96-2.84-23.16-6.72-12.24-6.61-22.38-15.77-31.66-26.06-13.2-14.64-23.79-31.01-32.81-48.43-8.82-17.02-16.33-34.65-21.83-53.01-3.3-9.81-6.27-27.64-12.67-57.93,1.08,4.05,21.83,27.53,31.64,36.8,9.82,9.7,20.16,18.93,30.86,27.64,8.24,6.7,17.29,12.41,26.17,18.29,15.12,10.01,31.39,17.88,48.19,24.59,18.31,7.32,37.24,12.54,56.8,15.29,11.89,1.67,23.76,1.02,35.61-.36.19-.02.38-.1.57-.2,1.22-.71.98-2.66-.37-3.04-.12-.03-.23-.05-.35-.06-3.08-.16-6.18.15-9.26-.04-8.26-.51-16.62-.54-24.73-1.95-13.48-2.34-26.4-6.82-39.18-11.76-13.18-5.09-26.04-10.85-38.34-17.75-9.67-5.42-19.33-10.96-28.45-17.25-10.93-7.53-21.64-15.48-31.77-24.05-9.52-8.06-18.42-16.91-27.12-25.87-12.04-12.41-22.93-25.8-32.12-40.52-2.42-3.87-3.56-7.93-3.73-12.46-.28-7.88.04-15.66,1.94-23.37,1-4.05-1.03-7.98-4.16-9.05C8.29-.79,4.46.87,3.02,5.03,1.51,9.37.35,14,.08,18.57c-.56,9.25,1.93,18.07,6.01,26.28,3.01,6.04,4.14,12.2,3.88,18.85-.16,4.13.24,8.28.44,12.42,1.14,23.88,4.94,47.36,11.58,70.31,6.32,21.83,15.19,42.66,26.22,62.55,10.02,18.06,21.75,34.77,37.58,48.34,8.29,7.1,17.05,13.4,27.45,17.04,13.36,4.69,26.86,5.74,40.42.84Z"></path><path class="d" d="m551.61,155.8c-.97-5.67-5.53-9.32-13.05-10.55-11.54-1.89-22.69.29-33.56,3.88-9.55,3.15-18.26,8.08-25.62,14.98-9.79,9.17-13.32,21.29-15.07,34.09-.06.44-.15.89-.14,1.34,0,.46.12.95.33,1.36.04.07.08.15.15.19.03.02.07.03.11.04.03,0,.07,0,.11,0,.62,0,1.2-.32,1.58-.81.31-.39.46-.82.67-1.26.44-.96.89-1.92,1.23-2.92,2.41-7.18,5.78-13.81,11.08-19.29,12.14-12.58,27.04-20.12,43.92-23.73,3.03-.65,6.12-1.03,9.22-1.09,11.75-.21,14.64,3.78,9.16,11.69-7.11,10.27-16.69,17.89-27.03,24.54-19.83,12.76-41.55,19.84-65.18,20.93-17.7.81-34.91-2.22-52.13-5.85-9.8-2.06-19.77-3.38-29.72-4.57-3.74-.45-7.63.41-11.97.72,1.29-4.51,2.1-9.25,4-13.49,2.03-4.52,5.05-8.61,7.79-12.78.57-.87,1.74-1.61,2.77-1.87,2.58-.65,3.79-2.17,2.84-4.59-4.23-10.74-11.16-18.75-22.87-21.52-10.78-2.55-21.37-1.11-31.89,1.73-20.6,5.58-37.27,17.63-52.42,32.05-10.29,9.79-19.36,20.71-28.01,31.96-13.01,16.91-24.85,34.64-36.25,52.68-12.75,20.18-25.25,40.53-39.53,59.71-9.12,12.25-18.75,24.03-30.37,34.03-2.73,2.35-5.76,4.46-9.64,4.39-2.6-.05-3.44-1.54-2.3-3.85.39-.79.81-1.56,1.22-2.34-1.94,1.15-3.77,2.41-3.18,4.9.56,2.37,2.48,3.16,4.65,3.11,1.72-.05,3.54-.25,5.14-.85,6.66-2.53,11.78-7.35,16.82-12.1,12.85-12.11,24.46-25.38,34.88-39.61,12.48-17.06,24.71-34.32,36.79-51.67,12.64-18.16,25.35-36.24,39.58-53.22,11.75-14.03,24.43-27.08,39.4-37.73,12.01-8.55,25.04-14.83,39.79-16.83,12.06-1.63,22.68.67,29.74,11.86,1.11,1.76,1.13,2.85-.18,4.61-4.73,6.32-9.67,12.49-11.53,20.55-4.09,17.81-11.93,33.87-23.78,47.83-8.99,10.59-19.42,19.67-30.49,28.01-13.94,10.51-28.3,20.43-43.66,28.78-8.9,4.84-17.89,9.54-27.1,13.75-4.59,2.1-9.71,3.07-14.65,4.33-4.82,1.24-6.58,3.64-5.39,7.89.96,3.41,4.85,4.87,8.86,3.35,2.35-.89,4.73-1.72,7.38-2.68,0,.05,0,.09,0,.13l6.13-2.71s.06-.04.09-.05c.26-.11.51-.22.77-.33l.21-.09-.21.09c6.71-2.86,13.54-5.45,20.16-8.5,15.03-6.93,28.87-15.86,41.77-26.2,12.13-9.72,23.17-20.6,33.36-32.33,11.34-13.05,21.17-27.06,27-43.54,1.56-4.42,1.85-4.59,6.63-4.81.7-.03,1.41-.03,2.12-.04,13.86-.24,27.05,3.73,40.22,7.09,11.29,2.88,22.49,5.81,34.09,7.06,24.92,2.68,48.72-1.1,71.09-12.6,16.03-8.24,30.16-18.86,40.3-34.09,2.62-3.94,4.65-8.22,3.8-13.15Z"></path><path class="d" d="m390.22,212.31c-.56.08-1.53.16-2.47.36-20.56,4.31-35.88,16-47.05,33.48-.82,1.28-2.38,4.96-1.39,5.71.95.72,2.07-.48,2.36-.91,3.65-5.46,7.97-10.62,13.28-14.9,9.55-7.7,19.99-13.17,32.73-12.75,1.3.04,2.63-.23,3.93-.46,3.54-.65,5.48-3.03,5.14-6.19-.25-2.35-3.05-4.33-6.52-4.33Z"></path></g></svg>